<?xml version="1.0"?>
<svg xmlns="http://www.w3.org/2000/svg" xmlns:xlink="http://www.w3.org/1999/xlink" xmlns:svgjs="http://svgjs.com/svgjs" version="1.1" width="512" height="512" x="0" y="0" viewBox="0 0 512 512" style="enable-background:new 0 0 512 512" xml:space="preserve"><g><g xmlns="http://www.w3.org/2000/svg" id="outline"><path d="M280,184h24a8,8,0,0,0,0-16H280a8,8,0,0,0,0,16Z" fill="#000000" data-original="#000000" style=""/><circle cx="290" cy="202" r="10" fill="#000000" data-original="#000000" style=""/><path d="M240,176a8,8,0,0,0-8-8H208a8,8,0,0,0,0,16h24A8,8,0,0,0,240,176Z" fill="#000000" data-original="#000000" style=""/><circle cx="222" cy="202" r="10" fill="#000000" data-original="#000000" style=""/><path d="M272,264H240a8,8,0,0,0,0,16h32a8,8,0,0,0,0-16Z" fill="#000000" data-original="#000000" style=""/><path d="M64.54,410.786a68.013,68.013,0,0,0-36.906,51.2L24.08,486.869A8,8,0,0,0,32,496H480a8,8,0,0,0,7.92-9.131l-3.554-24.88a68.013,68.013,0,0,0-36.906-51.2L304,339.056V319.8a78.84,78.84,0,0,0,25.255-33.4A205.454,205.454,0,0,0,341.788,240h5.268a28.785,28.785,0,0,0,25.888-16A29.092,29.092,0,0,0,376,211.056V196.944a28.834,28.834,0,0,0-8.082-20.031l4.186-16.634a100,100,0,0,0-21.088-89.457,92.217,92.217,0,0,0-94.484-34.313c-5.3,1.237-10.588,2.466-15.63,3.637A83.761,83.761,0,0,0,187.08,80.071,52.031,52.031,0,0,0,148.373,100.7a51.416,51.416,0,0,0-9.83,38.37l5.423,37.962A28.833,28.833,0,0,0,136,196.944v14.112A29.092,29.092,0,0,0,139.056,224a28.785,28.785,0,0,0,25.888,16h5.268a205.454,205.454,0,0,0,12.533,46.4A78.84,78.84,0,0,0,208,319.8v19.256ZM88,480V456a8,8,0,0,0-16,0v24H41.224l2.25-15.747A52.014,52.014,0,0,1,71.7,425.1l110.726-55.363-36.4,40.952a8,8,0,0,0-1.611,7.845L164.9,480Zm112-80v80H181.766l-20.714-62.142L200,374.042Zm240.3,25.1a52.014,52.014,0,0,1,28.222,39.156L470.776,480H440V456a8,8,0,0,0-16,0v24H347.1l20.49-61.47a8,8,0,0,0-1.611-7.845l-36.4-40.952ZM312,400V374.042l38.948,43.816L330.234,480H312Zm-87.16,80H216V404.944l10.184-5.092,5.671,17.012Zm16.4-105.564L216,387.056V369.3l3.961-11.883ZM224,340.155v-10.87a79.6,79.6,0,0,0,64,0v10.87l-32,25.6ZM240.938,480l6.222-56h17.68l6.222,56Zm25.3-72H245.766l-5.125-15.376L256,384.944l15.359,7.68ZM296,480h-8.84l-7.015-63.136,5.671-17.012L296,404.944Zm0-92.944-25.239-12.62,21.278-17.021L296,369.3Zm64-176a13.024,13.024,0,0,1-1.366,5.789A12.876,12.876,0,0,1,347.056,224h-3.543q.48-7.049.487-14.163V184h3.056A12.959,12.959,0,0,1,360,196.944ZM164.944,224a12.876,12.876,0,0,1-11.578-7.155A13.024,13.024,0,0,1,152,211.056V196.944A12.959,12.959,0,0,1,164.944,184H168v25.837q0,7.113.487,14.163Zm4.163-76.062A8.015,8.015,0,0,0,168,152v16h-3.056a28.944,28.944,0,0,0-6.015.633l-4.546-31.824a35.511,35.511,0,0,1,6.79-26.507,35.925,35.925,0,0,1,28.6-14.3H191.9a8,8,0,0,0,7.156-4.422A67.841,67.841,0,0,1,244.521,55.73c5.046-1.171,10.334-2.4,15.642-3.638a76.215,76.215,0,0,1,78.218,28.55c.11.147.225.289.345.428a83.993,83.993,0,0,1,17.862,75.305l-3.108,12.353a28.888,28.888,0,0,0-6.424-.728H344V152a8,8,0,0,0-8-8H297.087a128.849,128.849,0,0,1-91.379-38.335,8,8,0,0,0-12.6,1.543ZM197.6,280.462A189.337,189.337,0,0,1,184,209.837V154.182l17.8-30.2A145.057,145.057,0,0,0,297.087,160H328v49.837a189.337,189.337,0,0,1-13.6,70.625,62.9,62.9,0,0,1-116.8,0Z" fill="#000000" data-original="#000000" style=""/><path d="M240,240a8,8,0,0,0,8,8h16a8,8,0,0,0,0-16h-8V216a8,8,0,0,0-16,0Z" fill="#000000" data-original="#000000" style=""/></g></g></svg>
